<?xml version="1.0" encoding="utf-8"?>
<!-- Generator: Adobe Illustrator 16.0.3, SVG Export Plug-In . SVG Version: 6.00 Build 0)  -->
<!DOCTYPE svg PUBLIC "-//W3C//DTD SVG 1.1//EN" "http://www.w3.org/Graphics/SVG/1.1/DTD/svg11.dtd">
<svg version="1.1" xmlns="http://www.w3.org/2000/svg" xmlns:xlink="http://www.w3.org/1999/xlink" x="0px" y="0px"
	 width="1417.32px" height="850.39px" viewBox="0 0 1417.32 850.39" enable-background="new 0 0 1417.32 850.39"
	 xml:space="preserve">
<g id="Capa_4">
	<rect fill="#F5E1E3" width="1417.32" height="850.39"/>
	<text transform="matrix(0.9034 0 0 1 637.3882 484.8506)" font-family="'Calibri'" font-size="300">Gatos</text>
</g>
<g id="Capa_3">
	<g>
		<path fill="#7B7A6F" d="M492.824,500.243c0,0,37.455-34.988,31.961-43.457c-6.811-10.496-51.848,18.824-51.848,18.824
			L492.824,500.243z"/>
		<path fill="#7B7A6F" d="M389.376,397.548c0,0,19.691-47.321,11.195-52.771c-10.533-6.754-39.471,38.53-39.471,38.53
			L389.376,397.548z"/>
		<path fill="#7B7A6F" d="M76.998,507.164c0,0-38.842-33.442-33.695-42.127c6.379-10.763,52.566,16.708,52.566,16.708
			L76.998,507.164z"/>
		<path fill="#7B7A6F" d="M176.199,400.359c0,0-21.596-46.484-13.324-52.272c10.248-7.175,40.998,36.898,40.998,36.898
			L176.199,400.359z"/>
		<path fill="#D7C7C3" d="M504.712,505.589c-23.164-79.229-95.902-46.025-95.902-46.025s17.971-76.19-39.451-87.323
			c-46.139-8.945-78.955,23.391-85.021,33.698c-5.607-9.379-46.082-43.534-91.846-27.09c-56.086,20.155-31.422,83.778-31.422,83.778
			s-73.809-30.753-94.311,49.206c-16.453,64.169,77.908,71.758,82.01,100.461c4.1,28.703-30.754,403.895-30.754,403.895
			l352.334-4.813c0,0-47.379-373.816-44.24-402.64C429.246,579.911,523.302,569.172,504.712,505.589z"/>
		<g>
			<path fill="#D9AE38" d="M287.38,497.647c-51.934,0-99.768,39.634-72.434,66.967c27.334,27.334,43.455-8.199,73.801-8.199
				c28.699,0,43.734,28.7,68.334,12.3S346.148,497.647,287.38,497.647z"/>
			<path fill="#D9AE38" d="M129.416,497.966c-13.951-8.665-26.553-6.726-32.266,3.245c-7.021,12.261,3.367,23.826,16.982,31.183
				c13.613,7.356,27.059,6.005,31.762-2.523C150.597,521.343,143.367,506.632,129.416,497.966z"/>
			<path fill="#D9AE38" d="M235.22,454.627c7.773-5.866,7.176-22.247-2.025-35.851c-9.199-13.604-21.498-16.977-30.781-10.203
				c-11.414,8.328-6.646,23.126,2.779,35.397C214.621,456.242,227.447,460.494,235.22,454.627z"/>
			<path fill="#D9AE38" d="M467.13,497.865c-6.678-9.353-19.412-10.024-32.43-0.011c-13.016,10.014-18.742,25.372-13.213,33.389
				c5.531,8.017,19.043,8.021,31.855-0.657S475.339,509.364,467.13,497.865z"/>
			<path fill="#D9AE38" d="M357.414,406.274c-9.912-5.813-21.813-1.23-29.609,13.224c-7.799,14.453-6.76,30.813,1.561,35.874
				s20.658-0.448,28.814-13.599C366.335,428.622,369.601,413.422,357.414,406.274z"/>
		</g>
		<path fill="#D9AE38" d="M431.419,688.946c-34.117,16.845-63.125,109.958-120.141,122.176
			c-64.381,13.796-101.074-39.396-164.537-26.019c-2.916,0.615-5.813,1.368-8.686,2.242
			c-8.936,109.295-20.041,228.843-20.041,228.843l352.334-4.813C470.349,1011.376,444.464,804.091,431.419,688.946z"/>
		<g opacity="0.5">
			<path fill="#ABA897" d="M252.228,514.507c-24.512,10.685-34.615,28.508-26.471,36.652c8.258,8.258,20.754-16.749,36.652-20.362
				c14.932-3.394,39.1-4.899,40.725-12.218C305.849,506.362,278.701,502.969,252.228,514.507z"/>
			<path fill="#ABA897" d="M101.15,507.578c-4.17,4.86,2.27,11.492,6.883,15.555c3.846,3.386,9.84,7.708,13.271,4.353
				c3.432-3.354-2.225-8.708-5.168-12.678C113.195,510.837,104.554,503.609,101.15,507.578z"/>
			<path fill="#ABA897" d="M206.095,413.403c-6.006,2.219-3.604,11.146-1.549,16.938c1.713,4.829,4.848,11.521,9.479,10.258
				s2.291-8.691,1.65-13.591C215.037,422.108,211.001,411.591,206.095,413.403z"/>
			<path fill="#ABA897" d="M351.007,410.059c-5.123-3.842-11.32,3.019-15.07,7.888c-3.127,4.058-7.047,10.322-3.475,13.527
				s8.543-2.791,12.313-5.986S355.191,413.196,351.007,410.059z"/>
			<path fill="#ABA897" d="M459.962,498.208c-3.744-5.195-11.705-0.494-16.738,3.034c-4.195,2.94-9.805,7.752-7.352,11.876
				c2.455,4.124,8.988-0.116,13.539-2.042S463.019,502.45,459.962,498.208z"/>
		</g>
	</g>
</g>
<g id="Capa_1" display="none">
	<g display="inline">
		<g>
			<path fill="#EEEEEE" d="M1403.206,1089.334c5.881-9.566,9.277-20.822,9.277-32.875c0-17.512-7.164-33.346-18.713-44.746
				c11.549-11.402,18.713-27.236,18.713-44.748c0-19.375-8.77-36.697-22.549-48.234c12.376-11.484,20.129-27.881,20.129-46.096
				c0-20.152-9.488-38.076-24.231-49.586c14.743-11.51,24.231-29.432,24.231-49.584c0-18.191-7.732-34.57-20.081-46.053
				c9.491-11.014,15.243-25.342,15.243-41.021c0-21.867-11.166-41.119-28.1-52.387c-1.491-40.406-2.633-69.174-3.166-78.23
				c-2.48-41.996-13.423-122.299-46.07-132.196c-32.313-9.796-47.067,12.018-47.067,12.018s-8.015-68.102-50.077-78.116
				c-51.99-12.378-67.857,33.05-67.857,33.05s-15.867-45.428-67.859-33.05c-42.063,10.015-50.074,78.116-50.074,78.116
				s-14.756-21.814-47.07-12.018c-32.647,9.897-43.588,90.2-46.067,132.196c-0.527,8.92-1.224,36.959-2.003,76.395
				c-12.931,11.52-21.082,28.287-21.082,46.967c0,17.863,7.462,33.979,19.424,45.426c-0.012,0.787-0.026,1.576-0.039,2.367
				c-16.11,11.387-26.642,30.146-26.642,51.375c0,18.135,7.687,34.465,19.965,45.943c-10.858,11.301-17.546,26.641-17.546,43.551
				c0,15.727,5.786,30.094,15.327,41.119c-9.541,11.025-15.327,25.393-15.327,41.119c0,18.234,7.769,34.648,20.167,46.135
				c-0.021,1.52-0.041,3.033-0.063,4.541c-12.362,11.484-20.104,27.871-20.104,46.074c0,10.158,2.424,19.744,6.699,28.238
				c-8.722,10.795-13.955,24.527-13.955,39.486c0,34.732,28.156,62.889,62.888,62.889c15.453,0,29.596-5.584,40.544-14.832h281.178
				c11.144,17.629,30.791,29.344,53.186,29.344c34.73,0,62.888-28.156,62.888-62.887
				C1417.32,1113.971,1412.025,1100.16,1403.206,1089.334z"/>
			<path fill="#F4BFC0" d="M1006.519,492.16c-18.125,1.624-22.679,21.121-20.411,40.92c2.268,19.803,13.606,33.002,26.079,31.682
				c12.474-1.32,22.678-19.801,21.545-40.921C1032.597,502.721,1021.259,490.84,1006.519,492.16z"/>
			<path fill="#F4BFC0" d="M1111.189,496.561c12.473-1.32,22.677-19.799,21.544-40.92c-1.135-21.121-12.473-33-27.214-31.681
				c-18.124,1.624-22.678,21.121-20.41,40.92C1087.377,484.682,1098.717,497.882,1111.189,496.561z"/>
			<path fill="#F4BFC0" d="M1220.75,496.561c12.474-1.32,22.679-19.799,21.544-40.92s-12.472-33-27.214-31.681
				c-18.123,1.624-22.677,21.121-20.41,40.92C1196.938,484.682,1208.278,497.882,1220.75,496.561z"/>
			<path fill="#F4BFC0" d="M1336.018,523.841c-1.135-21.12-12.474-33.001-27.214-31.681c-18.126,1.623-22.679,21.121-20.41,40.92
				c2.267,19.801,13.606,33.002,26.08,31.682C1326.944,563.441,1337.149,544.961,1336.018,523.841z"/>
		</g>
		<path fill="#F4BFC0" d="M1152.811,547.805c-26.326,6.883-67.121,39.182-86.556,84.314c-19.43,45.15-14.323,90.004,9.733,99.219
			c24.058,9.232,65.307-25.807,92.643-22.154c27.337,3.676,62.776,29.268,95.451,17.176c32.676-12.111,7.453-99.572-17.6-134.648
			C1221.421,556.58,1194.504,536.912,1152.811,547.805z"/>
		<g opacity="0.4">
			<path fill="#FFFFFF" d="M1117.625,592.949c-26.102,22.465-31.761,48.236-18.642,55.164c13.299,7.021,19.171-28.5,37.36-38.99
				c17.085-9.852,46.25-20.891,45.468-30.514C1180.508,562.543,1145.811,568.688,1117.625,592.949z"/>
			<path fill="#FFFFFF" d="M1004.047,503.106c-8.235-0.446-9.958,11.334-10.49,19.231c-0.443,6.584-0.156,16.098,5.963,16.971
				c6.119,0.875,7.149-9.103,8.897-15.223C1010.166,517.967,1010.773,503.471,1004.047,503.106z"/>
			<path fill="#FFFFFF" d="M1098.736,467.191c6.119,0.874,7.15-9.104,8.898-15.223c1.748-6.119,2.354-20.614-4.372-20.98
				c-8.233-0.446-9.957,11.334-10.489,19.232C1092.331,456.805,1092.616,466.317,1098.736,467.191z"/>
			<path fill="#FFFFFF" d="M1213.407,432.301c-8.235-0.448-9.961,11.332-10.491,19.23c-0.443,6.584-0.156,16.098,5.964,16.973
				c6.117,0.872,7.148-9.105,8.896-15.225C1219.524,447.161,1220.131,432.665,1213.407,432.301z"/>
			<path fill="#FFFFFF" d="M1310.001,501.357c-8.235-0.445-9.958,11.334-10.491,19.232c-0.443,6.582-0.156,16.098,5.964,16.971
				c6.12,0.875,7.148-9.104,8.896-15.223S1316.728,501.725,1310.001,501.357z"/>
		</g>
	</g>
</g>
</svg>
