<?xml version="1.0" encoding="utf-8"?>
<!-- Generator: Adobe Illustrator 16.0.3, SVG Export Plug-In . SVG Version: 6.00 Build 0)  -->
<!DOCTYPE svg PUBLIC "-//W3C//DTD SVG 1.1//EN" "http://www.w3.org/Graphics/SVG/1.1/DTD/svg11.dtd">
<svg version="1.1" id="Capa_1" xmlns="http://www.w3.org/2000/svg" xmlns:xlink="http://www.w3.org/1999/xlink" x="0px" y="0px"
	 width="1417.32px" height="850.391px" viewBox="0 0 1417.32 850.391" enable-background="new 0 0 1417.32 850.391"
	 xml:space="preserve">
<g id="Capa_2">
	<rect y="0" fill="#CCCACA" stroke="#EEEEEE" stroke-miterlimit="10" width="1417.32" height="850.391"/>
	<text transform="matrix(0.9929 0 0 1 81 468.5583)" font-family="'Calibri'" font-size="300">Perros</text>
</g>
<g id="Capa_1_1_">
	<g>
		<g>
			<path fill="#EEEEEE" d="M1403.206,1089.334c5.881-9.565,9.277-20.821,9.277-32.875c0-17.512-7.164-33.346-18.713-44.745
				c11.549-11.402,18.713-27.236,18.713-44.748c0-19.375-8.771-36.697-22.549-48.234c12.375-11.484,20.129-27.881,20.129-46.096
				c0-20.152-9.488-38.076-24.231-49.586c14.743-11.511,24.231-29.433,24.231-49.584c0-18.191-7.732-34.57-20.081-46.054
				c9.49-11.014,15.243-25.342,15.243-41.021c0-21.867-11.166-41.119-28.101-52.387c-1.491-40.406-2.633-69.175-3.166-78.23
				c-2.479-41.996-13.423-122.299-46.069-132.196c-32.313-9.796-47.067,12.019-47.067,12.019s-8.015-68.103-50.077-78.116
				c-51.99-12.378-67.857,33.05-67.857,33.05s-15.866-45.428-67.858-33.05c-42.063,10.015-50.074,78.116-50.074,78.116
				s-14.756-21.814-47.07-12.019c-32.646,9.897-43.588,90.2-46.066,132.196c-0.527,8.92-1.225,36.959-2.003,76.396
				c-12.932,11.52-21.082,28.287-21.082,46.967c0,17.863,7.462,33.979,19.424,45.426c-0.012,0.787-0.026,1.576-0.039,2.367
				c-16.11,11.387-26.643,30.146-26.643,51.375c0,18.135,7.688,34.465,19.966,45.943c-10.858,11.301-17.546,26.641-17.546,43.551
				c0,15.727,5.785,30.094,15.326,41.119c-9.541,11.024-15.326,25.393-15.326,41.119c0,18.233,7.769,34.647,20.166,46.135
				c-0.021,1.52-0.041,3.033-0.063,4.541c-12.362,11.483-20.104,27.871-20.104,46.074c0,10.157,2.424,19.743,6.698,28.237
				c-8.722,10.795-13.955,24.527-13.955,39.486c0,34.731,28.156,62.889,62.889,62.889c15.452,0,29.596-5.584,40.544-14.832h281.178
				c11.145,17.629,30.791,29.345,53.186,29.345c34.73,0,62.889-28.156,62.889-62.888
				C1417.32,1113.971,1412.025,1100.16,1403.206,1089.334z"/>
			<path fill="#F4BFC0" d="M1006.519,492.16c-18.125,1.624-22.679,21.121-20.41,40.92c2.268,19.804,13.605,33.002,26.078,31.683
				c12.475-1.32,22.679-19.801,21.545-40.921C1032.597,502.721,1021.259,490.841,1006.519,492.16z"/>
			<path fill="#F4BFC0" d="M1111.188,496.561c12.474-1.32,22.678-19.799,21.545-40.92c-1.136-21.121-12.474-33-27.215-31.681
				c-18.124,1.623-22.678,21.12-20.41,40.92C1087.377,484.682,1098.717,497.883,1111.188,496.561z"/>
			<path fill="#F4BFC0" d="M1220.75,496.561c12.474-1.32,22.679-19.799,21.544-40.92s-12.472-33-27.214-31.681
				c-18.123,1.623-22.677,21.12-20.41,40.92C1196.938,484.682,1208.278,497.883,1220.75,496.561z"/>
			<path fill="#F4BFC0" d="M1336.018,523.842c-1.135-21.12-12.474-33.001-27.214-31.682c-18.126,1.623-22.679,21.121-20.41,40.92
				c2.268,19.802,13.606,33.002,26.08,31.683C1326.944,563.441,1337.149,544.962,1336.018,523.842z"/>
		</g>
		<path fill="#F4BFC0" d="M1152.812,547.805c-26.326,6.883-67.121,39.182-86.557,84.313c-19.43,45.15-14.323,90.004,9.733,99.22
			c24.058,9.231,65.307-25.808,92.643-22.154c27.337,3.676,62.776,29.268,95.451,17.176c32.676-12.11,7.453-99.572-17.6-134.647
			C1221.421,556.58,1194.504,536.912,1152.812,547.805z"/>
		<g opacity="0.4">
			<path fill="#FFFFFF" d="M1117.625,592.949c-26.103,22.465-31.761,48.236-18.642,55.164c13.299,7.021,19.171-28.5,37.359-38.99
				c17.085-9.852,46.25-20.891,45.469-30.514C1180.508,562.544,1145.812,568.688,1117.625,592.949z"/>
			<path fill="#FFFFFF" d="M1004.047,503.106c-8.235-0.446-9.958,11.334-10.49,19.231c-0.442,6.584-0.155,16.098,5.964,16.971
				c6.118,0.875,7.148-9.104,8.896-15.223C1010.166,517.968,1010.772,503.471,1004.047,503.106z"/>
			<path fill="#FFFFFF" d="M1098.736,467.191c6.118,0.874,7.149-9.104,8.897-15.223s2.354-20.614-4.372-20.98
				c-8.232-0.445-9.957,11.334-10.489,19.232C1092.331,456.805,1092.616,466.317,1098.736,467.191z"/>
			<path fill="#FFFFFF" d="M1213.407,432.302c-8.235-0.448-9.961,11.332-10.491,19.229c-0.443,6.584-0.156,16.099,5.964,16.974
				c6.117,0.872,7.148-9.105,8.896-15.226C1219.524,447.161,1220.131,432.665,1213.407,432.302z"/>
			<path fill="#FFFFFF" d="M1310.001,501.357c-8.235-0.445-9.958,11.334-10.491,19.232c-0.442,6.582-0.155,16.098,5.964,16.971
				c6.12,0.875,7.148-9.104,8.896-15.223C1316.118,516.219,1316.728,501.725,1310.001,501.357z"/>
		</g>
	</g>
</g>
</svg>
